<svg width="72" height="22" viewBox="0 0 72 22" fill="none" xmlns="http://www.w3.org/2000/svg">
<path d="M16 5H2C1.4375 5 1 5.46875 1 6V16C1 16.5625 1.4375 17 2 17H16C16.5312 17 17 16.5625 17 16V6C17 5.46875 16.5312 5 16 5ZM2 4H16C17.0938 4 18 4.90625 18 6V16C18 17.125 17.0938 18 16 18H2C0.875 18 0 17.125 0 16V6C0 4.90625 0.875 4 2 4ZM9.5 8C9.75 8 10 8.25 10 8.5V13.5C10 13.7812 9.75 14 9.5 14C9.21875 14 9 13.7812 9 13.5V8.5C9 8.25 9.21875 8 9.5 8ZM11 8.5C11 8.25 11.2188 8 11.5 8H14.5C14.75 8 15 8.25 15 8.5C15 8.78125 14.75 9 14.5 9H12V10.5H14C14.25 10.5 14.5 10.75 14.5 11C14.5 11.2812 14.25 11.5 14 11.5H12V13.5C12 13.7812 11.75 14 11.5 14C11.2188 14 11 13.7812 11 13.5V11V8.5ZM4 11C4 12.125 4.875 13 6 13C6.34375 13 6.6875 12.9062 7 12.75V11.75H5.75C5.46875 11.75 5.25 11.5312 5.25 11.25C5.25 11 5.46875 10.75 5.75 10.75H7.5C7.75 10.75 8 11 8 11.25V13C8 13.1562 7.90625 13.3125 7.78125 13.4062C7.28125 13.7812 6.65625 14 6 14C4.34375 14 3 12.6562 3 11C3 9.34375 4.34375 8 6 8C6.65625 8 7.28125 8.25 7.78125 8.625C8 8.78125 8.0625 9.09375 7.875 9.3125C7.71875 9.53125 7.40625 9.59375 7.1875 9.40625C6.84375 9.15625 6.4375 9 6 9C4.875 9 4 9.90625 4 11Z" fill="#8F9195"/>
<path d="M45 11C45 8.5 43.6562 6.21875 41.5 4.96875C39.3125 3.6875 36.6562 3.6875 34.5 4.96875C32.3125 6.21875 31 8.5 31 11C31 13.5312 32.3125 15.8125 34.5 17.0625C36.6562 18.3438 39.3125 18.3438 41.5 17.0625C43.6562 15.8125 45 13.5312 45 11ZM30 11C30 8.15625 31.5 5.53125 34 4.09375C36.4688 2.65625 39.5 2.65625 42 4.09375C44.4688 5.53125 46 8.15625 46 11C46 13.875 44.4688 16.5 42 17.9375C39.5 19.375 36.4688 19.375 34 17.9375C31.5 16.5 30 13.875 30 11ZM35.125 13.1875C35.6875 13.8438 36.625 14.5 38 14.5C39.3438 14.5 40.3125 13.8438 40.8438 13.1875C41.0312 12.9688 41.3438 12.9688 41.5625 13.125C41.7812 13.3125 41.7812 13.625 41.625 13.8438C40.9062 14.6562 39.7188 15.5 38 15.5C36.25 15.5 35.0625 14.6562 34.3438 13.8438C34.1875 13.625 34.1875 13.3125 34.4062 13.125C34.625 12.9688 34.9375 12.9688 35.125 13.1875ZM34.75 9.5C34.75 9.09375 35.0938 8.75 35.5 8.75C35.9062 8.75 36.25 9.09375 36.25 9.5C36.25 9.9375 35.9062 10.25 35.5 10.25C35.0938 10.25 34.75 9.9375 34.75 9.5ZM40.5 8.75C40.9062 8.75 41.25 9.09375 41.25 9.5C41.25 9.9375 40.9062 10.25 40.5 10.25C40.0938 10.25 39.75 9.9375 39.75 9.5C39.75 9.09375 40.0938 8.75 40.5 8.75Z" fill="#8F9195"/>
<path d="M69.875 5.125C68.9688 4.21875 67.5 4.21875 66.5938 5.125L60.5938 11.125C59.125 12.5938 59.125 14.9375 60.5938 16.4062C62.0625 17.875 64.4062 17.875 65.875 16.4062L70.625 11.6562C70.8125 11.4688 71.1562 11.4688 71.3438 11.6562C71.5312 11.8438 71.5312 12.1875 71.3438 12.375L66.5938 17.125C64.75 18.9688 61.7188 18.9688 59.875 17.125C58.0312 15.25 58.0312 12.25 59.875 10.4062L65.875 4.40625C67.1875 3.125 69.2812 3.125 70.5938 4.40625C71.875 5.71875 71.875 7.8125 70.5938 9.125L64.8438 14.875C63.9688 15.75 62.5 15.6562 61.7188 14.6875C61.0625 13.8438 61.125 12.6562 61.875 11.9062L66.625 7.15625C66.8125 6.96875 67.1562 6.96875 67.3438 7.15625C67.5312 7.34375 67.5312 7.6875 67.3438 7.875L62.5938 12.625C62.1875 13 62.1562 13.625 62.5 14.0625C62.9062 14.5625 63.6875 14.625 64.125 14.1562L69.875 8.40625C70.7812 7.5 70.7812 6.03125 69.875 5.125Z" fill="#8F9195"/>
</svg>
